<svg width="11" height="10" viewBox="0 0 11 10" fill="none" xmlns="http://www.w3.org/2000/svg">
<path fill-rule="evenodd" clip-rule="evenodd" d="M1.125 5.00003C1.125 4.91715 1.15792 4.83766 1.21653 4.77906C1.27513 4.72045 1.35462 4.68753 1.4375 4.68753H8.80813L6.84125 2.72128C6.78257 2.6626 6.74961 2.58301 6.74961 2.50003C6.74961 2.41704 6.78257 2.33746 6.84125 2.27878C6.89993 2.2201 6.97952 2.18713 7.0625 2.18713C7.14548 2.18713 7.22507 2.2201 7.28375 2.27878L9.78375 4.77878C9.81285 4.80781 9.83594 4.84229 9.8517 4.88026C9.86745 4.91822 9.87556 4.95892 9.87556 5.00003C9.87556 5.04113 9.86745 5.08183 9.8517 5.1198C9.83594 5.15777 9.81285 5.19225 9.78375 5.22128L7.28375 7.72128C7.22507 7.77996 7.14548 7.81292 7.0625 7.81292C6.97952 7.81292 6.89993 7.77996 6.84125 7.72128C6.78257 7.6626 6.74961 7.58301 6.74961 7.50003C6.74961 7.41704 6.78257 7.33746 6.84125 7.27878L8.80813 5.31253H1.4375C1.35462 5.31253 1.27513 5.2796 1.21653 5.221C1.15792 5.16239 1.125 5.08291 1.125 5.00003Z" fill="white"/>
</svg>
