<svg width="2050" height="2050" data-name="Layer 2" id="Layer_2" xmlns="http://www.w3.org/2000/svg"><defs><style>.cls-1{fill:#f4c23f}.cls-2{fill:#f4a93f}.cls-3{fill:#67baeb}.cls-4{fill:#46a1f8}.cls-5{fill:#4d4c78}.cls-6{fill:#323150}.cls-8{fill:#231f20}.cls-12{fill:#83d0fb}.cls-13{fill:#fad564}.cls-15{fill:#64639c}</style></defs><rect class="cls-1" height="1647.4" rx="88.2" ry="88.2" width="1212.7" x="640" y="209.3"/><path class="cls-2" d="M1826 1773.5H789.8a88.2 88.2 0 0 1-88.2-88.2V213.4a88.3 88.3 0 0 0-61.6 84.1v1470.9a88.3 88.3 0 0 0 88.3 88.3h1036.2a88.2 88.2 0 0 0 88.2-87.3 87.2 87.2 0 0 1-26.7 4.1z"/><path class="cls-3" d="M880.2 209.3H728.3a88.2 88.2 0 0 0-88.3 88.2v1470.9a88.3 88.3 0 0 0 88.3 88.3h151.9z"/><path class="cls-4" d="M789.8 1773.5a88.2 88.2 0 0 1-88.2-88.2V213.4a88.3 88.3 0 0 0-61.6 84.1v1470.9a88.3 88.3 0 0 0 88.3 88.3h151.9v-83.2z"/><path class="cls-5" d="M757.1 572.9H591.7a59.5 59.5 0 0 1 0-119h165.4a59.5 59.5 0 0 1 0 119zM757.1 919.3H591.7a59.5 59.5 0 0 1 0-119h165.4a59.5 59.5 0 1 1 0 119zM757.1 1265.7H591.7a59.5 59.5 0 0 1 0-119h165.4a59.5 59.5 0 1 1 0 119zM757.1 1612.1H591.7a59.5 59.5 0 0 1 0-119h165.4a59.5 59.5 0 0 1 0 119z"/><path class="cls-6" d="M805.3 534H639.9a59.6 59.6 0 0 1-59.5-59.5 58.2 58.2 0 0 1 3.5-20.1 59.5 59.5 0 0 0 7.8 118.5h165.4a59.5 59.5 0 0 0 56-39.5 50.3 50.3 0 0 1-7.8.6zM805.3 880.4H639.9a59.6 59.6 0 0 1-59.5-59.5 58.2 58.2 0 0 1 3.5-20.1 59.5 59.5 0 0 0 7.8 118.5h165.4a59.5 59.5 0 0 0 56-39.5 50.3 50.3 0 0 1-7.8.6zM805.3 1226.8H639.9a59.6 59.6 0 0 1-59.5-59.5 58.6 58.6 0 0 1 3.5-20.1 59.5 59.5 0 0 0 7.8 118.5h165.4a59.6 59.6 0 0 0 56-39.4 66.6 66.6 0 0 1-7.8.5zM805.3 1573.2H639.9a59.6 59.6 0 0 1-59.5-59.5 58.6 58.6 0 0 1 3.5-20.1 59.5 59.5 0 0 0 7.8 118.5h165.4a59.6 59.6 0 0 0 56-39.4 66.6 66.6 0 0 1-7.8.5z"/><path class="cls-5" d="M1615.4 464.6h-580.1a20 20 0 0 1 0-40h580.1a20 20 0 0 1 0 40zM1487.6 629.7h-452.3a20 20 0 0 1 0-40h452.3a20 20 0 0 1 0 40z"/><path class="cls-3" d="M197.3 442.9v1148.7h220.3V452.1H197.3v-9.2z"/><path d="M417.6 303.5a110.2 110.2 0 0 0-110.2-110.2 110.1 110.1 0 0 0-110.1 110.2v63.6h220.3z" style="fill:#de3226"/><rect class="cls-8" height="84.93" x="417.6" y="367.1"/><path class="cls-8" d="M197.3 442.9v-75.8 75.8z"/><path class="cls-1" d="M197.3 452.1h220.3v-85H197.3v85z"/><path d="M197.3 1591.6h220.3l-89.1 201.9c-8.1 18.3-34.1 18.3-42.2 0z" style="fill:#b9b1e0"/><path class="cls-4" d="M197.3 1591.6h58V452.1h-58v-9.2 1148.7z"/><path d="M417.6 367.1H255.3v-63.6a110.2 110.2 0 0 1 81.1-106.3 110.3 110.3 0 0 0-29-3.9 110.1 110.1 0 0 0-110.1 110.2v63.6z" style="fill:#b11a31"/><path class="cls-2" d="M255.3 452.1v-85h-58v85h58z"/><path d="m328.5 1793.5 7.9-18-81.1-183.9h-58l89 201.9c8.1 18.3 34.1 18.3 42.2 0z" style="fill:#b1a9d6"/><path class="cls-5" d="M293.3 723.5a19.9 19.9 0 0 1 34.1 14.1v691.2a20 20 0 0 1-40 0V737.6a20 20 0 0 1 5.9-14.1zM293.3 565.7a20 20 0 0 1 34.1 14.2v74.6a20 20 0 0 1-40 0v-74.6a20.4 20.4 0 0 1 5.9-14.2z"/><rect class="cls-12" height="278.37" rx="24.6" ry="24.6" transform="rotate(-180 392.7 1155.8)" width="49.1" x="368.1" y="1016.6"/><rect class="cls-12" height="106.15" rx="24.6" ry="24.6" transform="rotate(-180 392.7 911.2)" width="49.1" x="368.1" y="858.1"/><rect class="cls-13" height="61.1" rx="24.6" ry="24.6" transform="rotate(-180 392.7 413.05)" width="49.1" x="368.1" y="382.5"/><rect height="107.2" rx="24.6" ry="24.6" transform="rotate(-180 389.7 314.2)" width="49.1" x="365.1" y="260.6" style="fill:#f44533"/><rect class="cls-12" height="682.74" rx="19.8" ry="19.8" width="39.6" x="840.6" y="600.3"/><rect class="cls-15" height="45.42" rx="22.7" ry="22.7" width="136.4" x="644.2" y="453.9"/><rect class="cls-15" height="45.42" rx="22.7" ry="22.7" width="136.4" x="644.2" y="800.3"/><rect class="cls-15" height="45.42" rx="22.7" ry="22.7" width="136.4" x="644.2" y="1146.7"/><rect class="cls-15" height="45.42" rx="22.7" ry="22.7" width="136.4" x="644.2" y="1493.1"/><rect class="cls-13" height="952.93" rx="32.8" ry="32.8" width="65.5" x="1787.2" y="600.3"/><rect class="cls-13" height="47.93" rx="24" ry="24" width="400.8" x="1320.6" y="209.3"/></svg>