<svg version="1.1" id="Layer_1" xmlns="http://www.w3.org/2000/svg" xmlns:xlink="http://www.w3.org/1999/xlink" x="0px" y="0px"
	 viewBox="0 0 512 512" style="enable-background:new 0 0 512 512;" xml:space="preserve">
<path d="M0,346.68v-310c0-5.44,4.72-10,10.48-10H501.6c5.68,0,10.4,4.56,10.4,10v310H0z"/>
<g>
	<path style="fill:#999999;" d="M512,346.68v42.64c0,5.92-4.72,10.72-10.48,10.72H10.48C4.72,400.04,0,395.24,0,389.4v-42.64h512
		V346.68z"/>
	<polygon style="fill:#999999;" points="330.64,474.68 181.36,474.68 192,400.04 320,400.04 	"/>
</g>
<g>
	<polygon style="fill:#666666;" points="192,400.04 320,400.04 326.64,446.6 189.52,417.4 	"/>
	<rect x="144" y="474.68" style="fill:#666666;" width="224" height="10.64"/>
</g>
<g>
	<circle style="fill:#FFFFFF;" cx="149.28" cy="69.4" r="10.72"/>
	<circle style="fill:#FFFFFF;" cx="106.64" cy="69.4" r="10.72"/>
	<circle style="fill:#FFFFFF;" cx="64" cy="69.4" r="10.72"/>
</g>
<rect x="181.28" y="64.04" style="fill:#999999;" width="277.36" height="10.64"/>
<g>
	<path style="fill:#FF6600;" d="M263.44,144.04l5.28,20.32c1.12,4.48,2.24,8.56,2.96,12.72h0.24c0.88-4.08,2.24-8.32,3.52-12.64
		l6.56-20.4h6.08l6.16,19.92c1.52,4.8,2.64,8.96,3.52,13.04H298c0.64-4.08,1.76-8.24,3.04-12.96l5.76-20h7.2l-12.88,39.92h-6.56
		l-6.08-19.04c-1.44-4.48-2.56-8.4-3.52-13.12h-0.16c-0.96,4.8-2.24,8.88-3.6,13.2l-6.4,18.96H268l-12-39.92H263.44z"/>
	<path style="fill:#FF6600;" d="M325.12,144.04l5.28,20.32c1.12,4.48,2.24,8.56,2.96,12.72h0.24c0.88-4.08,2.24-8.32,3.52-12.64
		l6.56-20.4h6.08l6.16,19.92c1.52,4.8,2.64,8.96,3.52,13.04h0.24c0.64-4.08,1.76-8.24,3.04-12.96l5.76-20h7.2l-12.88,39.92h-6.56
		l-6.08-19.04c-1.44-4.48-2.56-8.4-3.52-13.12h-0.24c-0.96,4.8-2.24,8.88-3.6,13.2l-6.4,18.96h-6.56l-12.16-39.92H325.12z"/>
	<path style="fill:#FF6600;" d="M386.8,144.04l5.28,20.32c1.12,4.48,2.24,8.56,2.96,12.72h0.24c0.88-4.08,2.24-8.32,3.52-12.64
		l6.56-20.4h6.08l6.16,19.92c1.52,4.8,2.64,8.96,3.52,13.04h0.24c0.64-4.08,1.76-8.24,3.04-12.96l5.76-20h7.2l-12.88,39.92h-6.56
		l-6.08-19.04c-1.44-4.48-2.56-8.4-3.52-13.12h-0.16c-0.96,4.8-2.24,8.88-3.6,13.2l-6.4,18.96h-6.56l-12.24-39.92H386.8z"/>
	<rect x="74.64" y="144.04" style="fill:#FF6600;" width="146.48" height="10.64"/>
</g>
<rect x="74.64" y="186.68" style="fill:#999999;" width="146.48" height="10.64"/>
<rect x="256" y="197.4" style="fill:#FFFFFF;" width="181.36" height="10.64"/>
<g>
	<rect x="74.64" y="208.04" style="fill:#999999;" width="146.48" height="10.64"/>
	<rect x="74.64" y="229.4" style="fill:#999999;" width="146.48" height="10.64"/>
	<rect x="74.64" y="250.68" style="fill:#999999;" width="146.48" height="10.64"/>
	<rect x="74.64" y="272.04" style="fill:#999999;" width="146.48" height="10.64"/>
</g>
<rect x="384" y="229.4" style="fill:#FF6600;" width="53.36" height="53.36"/>
<rect x="320" y="229.4" style="fill:#999999;" width="53.36" height="53.36"/>
<g>
	<rect x="256" y="229.4" style="fill:#FFFFFF;" width="53.36" height="53.36"/>
	<path style="opacity:0.2;fill:#FFFFFF;enable-background:new    ;" d="M460.72,26.68H10.48C4.72,26.68,0,31.24,0,36.68v179.44
		L460.72,26.68z"/>
</g>
</svg>
