<svg width="512px" height="512px" viewBox="0 0 512 512" style="enable-background:new 0 0 512 512;" version="1.1" xml:space="preserve" xmlns="http://www.w3.org/2000/svg" xmlns:xlink="http://www.w3.org/1999/xlink"><g id="_x35_37_x2C__computer_x2C__love_x2C__heart_x2C__wedding"><g><path d="M456.652,55.542c0.245,0.098,0.488,0.199,0.729,0.307C457.141,55.741,456.897,55.64,456.652,55.542    z" style="fill:#DADCEC;"/><path d="M455.681,55.185c0.328,0.111,0.651,0.229,0.972,0.357    C456.332,55.414,456.009,55.296,455.681,55.185z" style="fill:#BFC3DD;"/><path d="M320.379,457.851c-2.103,0-4.06-1.336-4.75-3.442l-29.72-90.62c-0.86-2.624,0.569-5.449,3.192-6.31    c2.624-0.86,5.449,0.568,6.31,3.192l29.72,90.62c0.86,2.624-0.569,5.449-3.192,6.31    C321.421,457.771,320.896,457.851,320.379,457.851z" style="fill:#7B80A3;"/><path d="M181.721,457.851c-0.517,0-1.041-0.08-1.559-0.25c-2.624-0.86-4.054-3.685-3.193-6.309l29.71-90.62    c0.861-2.624,3.688-4.054,6.309-3.193c2.624,0.86,4.054,3.685,3.193,6.309l-29.71,90.62    C185.78,456.514,183.823,457.851,181.721,457.851z" style="fill:#7B80A3;"/><path d="M369.27,457.85h-235.6c-2.762,0-5-2.238-5-5s2.238-5,5-5h235.6c2.762,0,5,2.238,5,5    S372.031,457.85,369.27,457.85z" style="fill:#7B80A3;"/><path d="M43.06,298.81V73.699c0-10.8,8.72-19.55,19.48-19.55h386.92c10.76,0,19.48,8.75,19.48,19.55v268.99    c0,10.79-8.721,19.54-19.48,19.54h-158.8h-79.23H62.54c-10.761,0-19.48-8.75-19.48-19.54V298.81z" style="fill:#DADCEC;"/><g><path d="M55.06,357.153v-43.879V88.164c0-10.8,8.72-19.55,19.48-19.55h386.92     c2.516,0,4.911,0.495,7.118,1.365c-1.732-9.018-9.627-15.83-19.118-15.83H62.54c-10.761,0-19.48,8.75-19.48,19.55v225.11v43.88     c0,8.268,5.128,15.321,12.361,18.175C55.19,359.662,55.06,358.423,55.06,357.153z" style="fill:#BFC3DD;"/></g><path d="M285.34,142.929c15.74,0,28.47,12.74,28.47,28.44c0,28.43-28.47,44.63-56.91,73.07    c-28.439-28.44-56.88-44.64-56.88-73.07c0-15.7,12.74-28.44,28.44-28.44c14.22,0,21.33,7.11,28.439,21.33    C264.01,150.04,271.12,142.929,285.34,142.929z" style="fill:#EF3E5C;"/><g><g><g><path d="M216.431,174.005c0-14.56,10.96-26.566,25.073-28.234c-3.637-1.887-7.865-2.842-13.044-2.842       c-15.7,0-28.44,12.74-28.44,28.44c0,28.43,28.44,44.63,56.88,73.07c2.271-2.27,4.539-4.455,6.795-6.582       C238.798,214.817,216.431,199.217,216.431,174.005z" style="fill:#E42A53;"/></g></g></g><path d="M251.05,316.93c5.47,0,9.9,4.43,9.9,9.899c0,5.471-4.431,9.91-9.9,9.91s-9.91-4.439-9.91-9.91    C241.14,321.359,245.58,316.93,251.05,316.93z" style="fill:#7B80A3;"/><path d="M432.69,302.81c-2.762,0-5-2.238-5-5V94.399H84.31v203.41c0,2.762-2.238,5-5,5    c-2.761,0-5-2.238-5-5V89.399c0-2.761,2.239-5,5-5H432.69c2.762,0,5,2.239,5,5v208.41    C437.69,300.571,435.452,302.81,432.69,302.81z" style="fill:#7B80A3;"/><path d="M215.22,258.499h-99.67c-2.762,0-5-2.238-5-5s2.238-5,5-5h99.67c2.762,0,5,2.239,5,5    S217.981,258.499,215.22,258.499z" style="fill:#7B80A3;"/><path d="M188.04,231.319h-72.49c-2.762,0-5-2.239-5-5s2.238-5,5-5h72.49c2.761,0,5,2.239,5,5    S190.801,231.319,188.04,231.319z" style="fill:#7B80A3;"/><path d="M160.859,204.129h-45.31c-2.762,0-5-2.239-5-5s2.238-5,5-5h45.31c2.762,0,5,2.239,5,5    S163.621,204.129,160.859,204.129z" style="fill:#7B80A3;"/><path d="M396.45,258.499h-99.67c-2.762,0-5-2.238-5-5s2.238-5,5-5h99.67c2.762,0,5,2.239,5,5    S399.212,258.499,396.45,258.499z" style="fill:#7B80A3;"/><path d="M396.45,231.319h-72.49c-2.762,0-5-2.239-5-5s2.238-5,5-5h72.49c2.762,0,5,2.239,5,5    S399.212,231.319,396.45,231.319z" style="fill:#7B80A3;"/><path d="M396.45,204.129H351.14c-2.762,0-5-2.239-5-5s2.238-5,5-5h45.311c2.762,0,5,2.239,5,5    S399.212,204.129,396.45,204.129z" style="fill:#7B80A3;"/><path d="M120.797,293.81H55.06h-12v5v5h12h65.737c3.177,0,5.753-2.238,5.753-5    S123.974,293.81,120.797,293.81z" style="fill:#7B80A3;"/><path d="M161.099,293.81c-2.894,0-5.239,2.238-5.239,5s2.346,5,5.239,5H468.94v-10H161.099z" style="fill:#7B80A3;"/></g></g><g id="Layer_1"/></svg>